HIERARCHY
ROOT Hips
{
	OFFSET 0.000000 89.005402 0.000000
	CHANNELS 6 Xposition Yposition Zposition Xrotation Yrotation Zrotation
	JOINT Spine
	{
		OFFSET 0.116900 10.681000 0.373400
		CHANNELS 3 Xrotation Yrotation Zrotation
		JOINT Spine1
		{
			OFFSET 0.000000 13.840401 0.053500
			CHANNELS 3 Xrotation Yrotation Zrotation
			JOINT Spine2
			{
				OFFSET 0.000000 14.712700 -0.366200
				CHANNELS 3 Xrotation Yrotation Zrotation
				JOINT Neck
				{
					OFFSET 0.000000 35.415497 -3.314200
					CHANNELS 3 Xrotation Yrotation Zrotation
					JOINT Head
					{
						OFFSET 0.000000 16.899200 1.218300
						CHANNELS 3 Xrotation Yrotation Zrotation
						JOINT HeadTop_End
						{
							OFFSET 0.000000 22.206207 2.192500
							CHANNELS 3 Xrotation Yrotation Zrotation
							End Site
							{
								OFFSET 0.000000 22.314178 0.000000
							}
						}
					}
				}
				JOINT LeftShoulder
				{
					OFFSET 12.896400 26.716293 -4.548400
					CHANNELS 3 Xrotation Yrotation Zrotation
					JOINT LeftArm
					{
						OFFSET 19.027000 -4.857010 -1.718400
						CHANNELS 3 Xrotation Yrotation Zrotation
						JOINT LeftForeArm
						{
							OFFSET 24.179897 0.000000 0.000000
							CHANNELS 3 Xrotation Yrotation Zrotation
							JOINT LeftHand
							{
								OFFSET 27.156403 0.000000 0.000000
								CHANNELS 3 Xrotation Yrotation Zrotation
								JOINT LeftHandIndex1
								{
									OFFSET 16.441200 0.000000 0.000000
									CHANNELS 3 Xrotation Yrotation Zrotation
									JOINT LeftHandIndex2
									{
										OFFSET 4.821899 0.000000 0.000000
										CHANNELS 3 Xrotation Yrotation Zrotation
										JOINT LeftHandIndex3
										{
											OFFSET 6.386497 0.000000 0.000000
											CHANNELS 3 Xrotation Yrotation Zrotation
											JOINT LeftHandIndex4
											{
												OFFSET 5.188988 0.000000 0.000000
												CHANNELS 3 Xrotation Yrotation Zrotation
												End Site
												{
													OFFSET -0.178703 5.185913 0.000177
												}
											}
										}
									}
								}
								JOINT LeftHandThumb1
								{
									OFFSET 6.534897 -5.032593 5.900300
									CHANNELS 3 Xrotation Yrotation Zrotation
									JOINT LeftHandThumb2
									{
										OFFSET 3.818176 -2.204422 2.204423
										CHANNELS 3 Xrotation Yrotation Zrotation
										JOINT LeftHandThumb3
										{
											OFFSET 3.252098 -1.877594 1.877601
											CHANNELS 3 Xrotation Yrotation Zrotation
											JOINT LeftHandThumb4
											{
												OFFSET 5.251778 -3.032120 3.032117
												CHANNELS 3 Xrotation Yrotation Zrotation
												End Site
												{
													OFFSET 0.000023 6.780014 0.000000
												}
											}
										}
									}
								}
							}
						}
					}
				}
				JOINT RightShoulder
				{
					OFFSET -12.896300 26.716293 -4.548400
					CHANNELS 3 Xrotation Yrotation Zrotation
					JOINT RightArm
					{
						OFFSET -19.027000 -4.857010 -1.718400
						CHANNELS 3 Xrotation Yrotation Zrotation
						JOINT RightForeArm
						{
							OFFSET -24.179897 0.000000 0.000000
							CHANNELS 3 Xrotation Yrotation Zrotation
							JOINT RightHand
							{
								OFFSET -27.156403 0.000000 0.000000
								CHANNELS 3 Xrotation Yrotation Zrotation
								JOINT RightHandThumb1
								{
									OFFSET -6.591202 -4.852203 5.988100
									CHANNELS 3 Xrotation Yrotation Zrotation
									JOINT RightHandThumb2
									{
										OFFSET -3.818176 -2.204422 2.204423
										CHANNELS 3 Xrotation Yrotation Zrotation
										JOINT RightHandThumb3
										{
											OFFSET -3.252098 -1.877594 1.877601
											CHANNELS 3 Xrotation Yrotation Zrotation
											JOINT RightHandThumb4
											{
												OFFSET -5.251778 -3.032120 3.032117
												CHANNELS 3 Xrotation Yrotation Zrotation
												End Site
												{
													OFFSET -0.000023 6.780014 0.000000
												}
											}
										}
									}
								}
								JOINT RightHandIndex1
								{
									OFFSET -16.029404 0.000000 0.000000
									CHANNELS 3 Xrotation Yrotation Zrotation
									JOINT RightHandIndex2
									{
										OFFSET -5.213303 0.000000 0.000000
										CHANNELS 3 Xrotation Yrotation Zrotation
										JOINT RightHandIndex3
										{
											OFFSET -6.386528 0.000000 0.000000
											CHANNELS 3 Xrotation Yrotation Zrotation
											JOINT RightHandIndex4
											{
												OFFSET -5.189026 0.000000 0.000000
												CHANNELS 3 Xrotation Yrotation Zrotation
												End Site
												{
													OFFSET 0.236702 5.183624 0.001972
												}
											}
										}
									}
								}
							}
						}
					}
				}
			}
		}
	}
	JOINT LeftUpLeg
	{
		OFFSET 14.073000 -7.904099 -1.463000
		CHANNELS 3 Xrotation Yrotation Zrotation
		JOINT LeftLeg
		{
			OFFSET -0.109806 -34.073280 4.093200
			CHANNELS 3 Xrotation Yrotation Zrotation
			JOINT LeftFoot
			{
				OFFSET 0.109806 -29.899420 -6.319000
				CHANNELS 3 Xrotation Yrotation Zrotation
				JOINT LeftToeBase
				{
					OFFSET 1.551100 -14.988700 20.535801
					CHANNELS 3 Xrotation Yrotation Zrotation
					JOINT LeftToe_End
					{
						OFFSET 0.221200 0.570800 13.248301
						CHANNELS 3 Xrotation Yrotation Zrotation
						End Site
						{
							OFFSET 0.000000 13.262435 0.000000
						}
					}
				}
			}
		}
	}
	JOINT RightUpLeg
	{
		OFFSET -13.839300 -7.904099 -1.463000
		CHANNELS 3 Xrotation Yrotation Zrotation
		JOINT RightLeg
		{
			OFFSET 0.109694 -34.073219 4.093300
			CHANNELS 3 Xrotation Yrotation Zrotation
			JOINT RightFoot
			{
				OFFSET -0.109694 -29.899384 -6.319200
				CHANNELS 3 Xrotation Yrotation Zrotation
				JOINT RightToeBase
				{
					OFFSET -1.551100 -14.988700 20.535801
					CHANNELS 3 Xrotation Yrotation Zrotation
					JOINT RightToe_End
					{
						OFFSET -0.221200 0.570900 13.248299
						CHANNELS 3 Xrotation Yrotation Zrotation
						End Site
						{
							OFFSET 0.000000 13.262440 0.000000
						}
					}
				}
			}
		}
	}
}
MOTION
Frames: 8
Frame Time: 0.033333
1.236966 68.452957 2.092596 21.424374 38.568985 -12.883786 4.519598 -6.236240 1.600086 9.205432 -12.256897 3.178250 9.205421 -12.256904 3.178254 -2.942677 1.984272 -4.107503 -4.358887 -8.563021 5.794972 -0.000000 -0.000000 0.000000 3.461600 -26.798435 -16.884182 -68.240543 -29.279805 -52.786075 90.295237 -24.490248 75.114719 2.876619 0.982709 -9.171633 -2.025157 -15.147003 -15.844348 -7.635255 -1.598739 -80.352681 -0.000004 -0.000004 0.000007 -0.000001 -0.000000 0.000001 -21.565936 -4.158626 0.489518 9.191787 30.575916 2.611631 -0.000005 -0.000007 -0.000009 -0.000002 -0.000001 0.000000 -1.350260 10.754437 5.819812 -55.618729 19.378263 64.919958 85.887887 26.358743 -75.186695 5.071371 -11.318410 -13.745601 -23.169388 -7.468561 -7.404119 20.207518 -9.886022 1.870643 0.000004 -0.000024 -0.000000 -0.000000 -0.000000 0.000000 -8.762139 7.156344 20.816969 -4.236320 0.748245 59.523569 -0.000001 0.000009 0.000004 0.000001 -0.000001 0.000001 -40.682536 17.641226 16.529905 73.998256 5.472129 -10.369018 -48.764672 3.595583 -6.269360 1.818162 -0.538991 -0.000032 0.000000 0.000001 -0.000000 -70.915668 7.442620 -0.699730 65.325719 -11.605309 -6.758720 -9.466272 -2.097972 14.404830 -0.000001 -0.487084 0.000003 -0.000000 0.000002 0.000000 
1.204111 69.422363 2.732027 19.199264 37.447503 -10.711769 4.339491 -5.927783 1.637458 8.826141 -11.639067 3.158216 8.826140 -11.639074 3.158215 -1.981398 0.947896 -2.760555 -2.246073 -10.315486 5.722641 -0.000002 0.000000 0.000001 3.468264 -26.386148 -16.463034 -64.842824 -27.416553 -51.469372 89.631445 -24.890478 75.704649 2.144215 -1.514371 -5.551206 0.788057 -15.850991 -10.295456 -7.345308 -1.545305 -77.839240 0.000001 -0.000003 0.000008 -0.000002 -0.000001 0.000000 -21.664983 -4.888776 0.149076 12.812077 23.857033 13.076393 -0.000002 -0.000007 -0.000010 0.000000 0.000000 -0.000001 -1.378055 10.954665 6.290585 -55.123537 19.582224 65.689399 87.052585 26.146881 -74.527575 5.880113 -11.745708 -13.535153 -24.156945 -7.411119 -7.756957 20.684586 -9.875466 1.810194 0.000004 -0.000024 0.000002 0.000001 -0.000000 0.000000 -8.930068 7.069256 21.704512 -4.240078 0.750245 59.411151 0.000001 0.000010 0.000003 0.000001 -0.000000 -0.000001 -36.834636 19.153201 16.527777 71.171992 5.749281 -10.792348 -47.554069 3.711998 -6.473294 1.324768 -0.432784 -0.342531 0.000000 0.000001 0.000000 -68.505110 5.936866 -1.158124 64.379854 -9.973224 -6.482374 -10.220558 -1.737363 13.049402 -0.266709 0.275441 -0.753206 0.000000 0.000001 -0.000000 
1.049645 70.358932 3.282457 17.632755 36.351353 -8.912850 4.153599 -5.608130 1.617961 8.431693 -10.997907 3.031371 8.431705 -10.997899 3.031359 -2.054133 0.341349 -1.819880 -0.953996 -11.498135 5.620622 0.000000 0.000000 0.000000 3.299210 -26.137981 -15.814823 -61.398660 -26.267851 -50.563399 87.596411 -26.941162 74.646325 1.260687 -2.855279 -2.093343 4.135461 -16.330579 -4.220702 -6.605291 -1.360671 -71.440172 -0.000001 -0.000005 0.000012 -0.000003 -0.000001 0.000003 -21.705726 -6.490169 -0.494077 18.528374 14.870452 22.549979 -0.000005 -0.000008 -0.000007 -0.000000 -0.000001 0.000002 -1.370897 11.089918 6.641521 -54.754546 20.084603 65.907405 87.141486 26.784455 -72.357050 5.822282 -11.852813 -13.761183 -25.371760 -7.018258 -8.845994 21.376896 -9.939900 1.828971 0.000004 -0.000024 0.000001 0.000000 -0.000000 -0.000000 -9.360526 6.953493 23.154276 -4.231070 0.747283 59.217405 0.000002 0.000009 0.000001 0.000000 -0.000001 -0.000002 -33.358808 19.793099 15.476915 68.465085 6.551146 -10.810891 -46.233216 3.787766 -6.612872 0.595839 -0.441400 -0.955092 -0.000000 -0.000000 0.000000 -66.597063 5.149462 -1.168811 63.083217 -8.677423 -6.649664 -10.163288 -1.542991 12.502729 -0.381977 0.679500 -1.142086 -0.000000 0.000001 0.000000 
0.805604 71.245941 3.661193 16.482210 35.796332 -7.654738 4.109110 -5.346024 1.649666 8.332790 -10.468191 3.045424 8.332803 -10.468180 3.045420 -3.073976 0.025784 -1.357856 -1.486074 -12.517314 5.663167 -0.000000 0.000000 -0.000000 3.003742 -26.038336 -15.539567 -58.034594 -25.855095 -49.641624 85.473021 -29.835704 73.805610 0.294072 -3.098180 1.404494 5.836923 -15.902448 -0.394506 -5.532109 -0.997917 -61.854582 -0.000003 -0.000003 0.000006 -0.000001 0.000001 -0.000001 -21.745589 -8.601684 -1.287378 20.403348 7.176838 25.463620 -0.000006 -0.000008 -0.000010 0.000001 -0.000002 0.000001 -1.406354 10.897618 7.366046 -54.932561 20.836679 65.811427 86.428941 27.900585 -69.781939 5.427702 -11.907514 -14.794750 -26.747461 -4.509731 -9.233163 22.436065 -10.189666 2.034528 0.000004 -0.000024 -0.000001 -0.000001 0.000001 -0.000001 -9.417298 6.771838 24.102445 -4.167204 0.740703 58.545035 0.000001 0.000010 0.000001 0.000002 -0.000001 0.000002 -30.640314 19.271469 13.675774 66.507540 7.544469 -10.034759 -45.169236 3.812698 -6.685770 0.615794 -0.467933 -1.672849 -0.000000 -0.000000 -0.000000 -64.763109 4.820188 -0.879284 61.457707 -8.210543 -7.137492 -9.629876 -1.468986 12.493169 -0.520741 1.123352 -1.562618 0.000000 -0.000001 -0.000000 
0.408636 71.984657 3.835756 15.434824 35.484253 -6.492027 4.176425 -5.120259 1.661017 8.458844 -10.016938 3.033078 8.458842 -10.016940 3.033077 -4.462055 -0.068223 -1.233203 -2.824951 -13.240946 5.438712 -0.000001 0.000000 0.000000 2.708028 -25.833548 -15.258518 -55.021405 -25.684875 -49.005187 83.536799 -32.811037 73.427348 -0.534847 -2.976668 5.611124 6.196291 -15.405295 1.016606 -4.202589 -0.382397 -49.139943 -0.000003 -0.000001 0.000007 -0.000001 -0.000000 -0.000003 -21.823983 -10.858146 -2.095824 13.325981 2.873379 19.734542 -0.000002 -0.000007 -0.000013 0.000003 -0.000001 -0.000000 -1.318757 10.914381 7.263771 -55.425032 21.140626 65.985631 84.492363 29.319489 -66.760325 4.891330 -11.927314 -16.180933 -27.380350 -0.964532 -9.741538 24.756504 -10.671529 2.459186 0.000002 -0.000025 0.000001 0.000001 0.000000 -0.000002 -8.482467 6.611230 22.513907 -3.967571 0.722172 56.673355 0.000001 0.000008 -0.000002 0.000001 -0.000001 -0.000001 -28.865291 18.187501 11.594781 65.744512 8.810118 -8.799978 -43.897014 3.723202 -6.680247 -0.220382 -0.625352 -2.128709 0.000000 -0.000000 -0.000000 -63.224035 4.789323 -0.305105 59.838625 -8.152990 -7.991847 -8.868997 -1.416396 12.690607 -0.554589 1.382479 -1.796708 -0.000000 -0.000000 -0.000000 
-0.056066 72.501579 3.800325 14.371259 34.916706 -5.245450 4.279602 -4.797004 1.618034 8.651611 -9.366471 2.921325 8.651608 -9.366455 2.921318 -5.809044 -0.234478 -1.135178 -4.167963 -13.982242 4.656741 0.000002 0.000000 0.000000 2.424127 -25.762884 -15.030678 -52.563971 -25.582892 -48.192384 82.368243 -35.294046 73.882696 -0.941647 -1.968577 9.925096 8.830595 -16.840053 3.304764 -2.502024 0.736596 -30.541758 -0.000002 -0.000005 0.000007 -0.000000 0.000004 0.000000 -21.952428 -12.875888 -2.802616 8.342074 -0.934810 14.685154 -0.000006 -0.000008 -0.000010 -0.000003 -0.000003 0.000000 -1.128185 11.140598 6.493650 -56.009054 21.354049 65.925368 81.502359 31.199515 -63.275692 3.834913 -11.155278 -19.257746 -27.415520 3.222112 -10.622659 23.918489 -8.243445 3.451917 0.000004 -0.000023 -0.000001 -0.000002 0.000000 -0.000002 -5.787262 6.577363 13.199509 -3.290672 0.703463 50.189637 -0.000002 0.000008 0.000008 -0.000001 0.000001 -0.000001 -27.898874 16.929092 9.226317 66.273196 10.351725 -7.403395 -42.909519 3.208820 -6.011749 -1.563282 -1.307797 -2.546927 -0.000000 0.000000 0.000000 -62.171373 4.780419 0.314181 58.411826 -7.833989 -8.905972 -7.691626 -1.315838 12.833937 -0.579157 1.815205 -2.196007 -0.000000 0.000001 0.000000 
-0.475821 72.847084 3.504064 13.163582 33.816806 -4.065114 4.403761 -4.258407 1.584557 8.885707 -8.262908 2.846666 8.885720 -8.262913 2.846670 -6.694129 -0.617835 -1.107591 -5.497685 -15.126338 3.517418 -0.000001 0.000000 -0.000000 2.237899 -25.697207 -15.050949 -50.795147 -25.739319 -47.075037 82.654749 -36.855899 74.601102 -0.803283 -0.799765 14.238941 10.102092 -17.486855 4.475967 -1.473799 1.890760 -15.935198 -0.000003 -0.000005 0.000005 0.000000 0.000002 -0.000002 -22.116605 -14.264427 -3.306948 2.461801 -1.312767 8.048219 -0.000003 -0.000008 -0.000010 0.000001 -0.000000 -0.000000 -0.899679 11.603154 5.664011 -56.341623 21.692672 64.887104 78.051071 33.423667 -59.846425 2.627879 -9.883865 -23.707360 -26.840832 7.515200 -11.581580 20.515312 -3.339303 5.245011 0.000006 -0.000026 0.000001 -0.000003 -0.000002 0.000001 -2.147988 5.350552 -0.779892 -2.320599 0.500844 41.105007 -0.000002 0.000007 -0.000003 -0.000001 -0.000003 0.000000 -27.516804 15.373410 6.945906 67.452995 10.249884 -5.798390 -41.619310 2.688112 -5.212514 -3.326164 -2.113420 -3.573251 0.000000 0.000002 -0.000000 -61.421958 4.358107 0.853239 57.124205 -6.812715 -9.522095 -6.468847 -1.068101 12.391989 -0.839745 2.493446 -2.824594 -0.000000 -0.000002 0.000000 
-0.822782 73.036316 2.922071 11.855726 32.112681 -3.022444 4.518647 -3.451315 1.584048 9.097897 -6.611986 2.825621 9.097899 -6.611993 2.825621 -7.098763 -1.137901 -1.080287 -6.572706 -16.420132 2.310098 0.000000 -0.000000 -0.000000 2.278438 -25.298059 -14.701067 -49.675921 -25.833311 -46.095024 84.192860 -37.095454 74.429179 0.545039 0.998469 15.913813 7.404086 -18.520568 -1.429754 -1.303444 2.159773 -12.900729 -0.000002 -0.000004 0.000007 -0.000000 0.000001 -0.000000 -22.252630 -14.686531 -3.522697 -5.675706 1.469266 6.717442 -0.000007 -0.000006 -0.000010 -0.000000 -0.000002 0.000002 -0.683901 12.559791 5.300346 -55.429116 21.516062 62.223372 74.758989 36.119946 -57.602988 1.585913 -8.249221 -28.170818 -25.628958 11.312015 -12.294204 16.967966 1.379077 7.613420 0.000004 -0.000025 -0.000001 0.000003 0.000001 0.000001 0.623973 2.812973 -14.189271 -1.343909 0.046748 31.781611 0.000001 0.000012 0.000001 0.000003 0.000000 0.000001 -27.811405 13.491175 5.097454 68.880661 5.686662 -4.318608 -38.728183 2.412026 -4.699228 -9.907074 -2.901415 -1.402520 0.000000 0.000000 -0.000000 -61.049542 3.622790 1.205203 56.056537 -4.887698 -9.729839 -4.973925 -0.830073 12.054014 -1.197566 3.262073 -3.528742 -0.000000 -0.000002 0.000000 
